<?xml version="1.0"?>
<svg xmlns="http://www.w3.org/2000/svg" xmlns:xlink="http://www.w3.org/1999/xlink" version="1.1" id="Layer_1" x="0px" y="0px" viewBox="0 0 512.033 512.033" style="enable-background:new 0 0 512.033 512.033;" xml:space="preserve" width="512px" height="512px" class=""><g><g>
	<g>
		<g>
			<path d="M506.215,65.19c-5.227-2.667-128.171-65.173-175.531-65.173c-4.715,0-8.917,3.221-10.261,7.765     c-0.427,1.429-10.859,34.901-64.405,34.901S192.038,9.211,191.633,7.889c-1.237-4.651-5.461-7.872-10.283-7.872     C133.99,0.017,11.046,62.523,5.82,65.19c-4.267,2.176-6.549,6.891-5.611,11.584l21.333,106.667     c1.045,5.227,5.739,8.725,11.115,8.555c4.672-0.277,36.992-2.347,60.032-6.635c-7.723,40.597-7.552,71.083-7.403,100.672     l0.043,12.651c0,39.168,20.8,116.821,21.696,120.107c1.259,4.672,5.483,7.893,10.304,7.893c41.173,0,74.667,33.493,74.667,74.667     c0,5.888,4.779,10.667,10.667,10.667h106.667c5.888,0,10.667-4.779,10.667-10.667c0-41.173,33.493-74.667,74.667-74.667     c4.821,0,9.045-3.243,10.304-7.893c0.875-3.285,21.696-80.939,21.696-120.107l0.085-12.651     c0.149-29.589,0.299-60.075-7.403-100.672c23.019,4.288,55.36,6.357,60.032,6.635c5.077,0.171,10.069-3.328,11.115-8.555     l21.333-106.667C512.764,72.102,510.46,67.366,506.215,65.19z M471.377,170.043c-22.208-1.685-52.693-5.12-61.717-9.131     c-3.669-1.643-8-1.067-11.115,1.515c-3.115,2.581-4.501,6.677-3.605,10.624c10.773,46.997,10.603,78.997,10.432,112.875     l-0.043,12.757c0,29.653-13.803,86.592-19.008,107.029c-45.504,3.925-82.048,39.765-87.061,84.971h-86.528     c-5.013-45.205-41.557-81.045-87.061-84.971c-5.205-20.437-19.008-77.376-19.008-107.029l-0.043-12.757     c-0.192-33.899-0.341-65.899,10.432-112.875c0.917-3.947-0.491-8.064-3.605-10.624c-3.115-2.56-7.424-3.157-11.115-1.515     c-9.024,4.011-39.509,7.424-61.717,9.131L22.716,80.529c36.501-18.155,114.88-54.208,151.701-58.731     c7.275,14.4,28.203,42.197,81.579,42.197s74.325-27.797,81.579-42.197c36.8,4.501,115.2,40.555,151.701,58.731L471.377,170.043z" data-original="#000000" class="active-path" data-old_color="#d60303" fill="#d60303"/>
			<path d="M277.329,128.017c-7.531,0-14.869,2.027-21.333,5.824c-6.464-3.797-13.803-5.824-21.333-5.824     c-23.531,0-42.667,19.136-42.667,42.667c0,29.056,56.299,82.091,56.875,82.603c2.005,1.813,4.565,2.731,7.125,2.731     c2.56,0,5.12-0.917,7.125-2.731c0.576-0.512,56.875-53.568,56.875-82.603C319.996,147.153,300.86,128.017,277.329,128.017z      M255.996,230.502c-15.872-16.213-42.667-47.595-42.667-59.819c0-11.755,9.579-21.333,21.333-21.333     c5.184,0,10.219,1.984,14.187,5.568c4.053,3.648,10.24,3.648,14.272,0c3.989-3.584,9.024-5.568,14.208-5.568     c11.755,0,21.333,9.579,21.333,21.333C298.662,182.907,271.868,214.31,255.996,230.502z" data-original="#000000" class="active-path" data-old_color="#d60303" fill="#d60303"/>
		</g>
	</g>
</g></g> </svg>
