<?xml version="1.0" encoding="iso-8859-1"?>
<!-- Generator: Adobe Illustrator 19.0.0, SVG Export Plug-In . SVG Version: 6.00 Build 0)  -->
<svg version="1.1" id="Layer_1" xmlns="http://www.w3.org/2000/svg" xmlns:xlink="http://www.w3.org/1999/xlink" x="0px" y="0px"
	 viewBox="0 0 512 512" style="enable-background:new 0 0 512 512;" xml:space="preserve">
<g>
	<g>
		<path d="M504.606,65.836h-33.408c-4.083,0-7.394,3.311-7.394,7.394v28.22H48.208V73.23c0-4.083-3.311-7.394-7.394-7.394H7.394
			C3.311,65.836,0,69.147,0,73.23v365.54c0,4.083,3.311,7.394,7.394,7.394h33.42c4.083,0,7.394-3.311,7.394-7.394v-65.399h415.596
			v65.399c0,4.083,3.311,7.394,7.394,7.394h33.408c4.083,0,7.394-3.311,7.394-7.394V73.23C512,69.147,508.69,65.836,504.606,65.836z
			 M33.42,431.376H14.788V80.624H33.42V431.376z M48.208,155.228h29.428v113.41H48.208V155.228z M48.208,283.425h29.428v22.169
			H48.208V283.425z M463.804,358.584H48.208v-38.202h415.596V358.584z M92.423,305.594V155.228h12.939v150.366H92.423z
			 M156.195,283.425v22.169H120.15v-22.169H156.195z M120.15,268.637v-113.41h36.045v113.41H120.15z M170.983,305.594V155.228
			h12.939v150.366H170.983z M234.743,283.425v22.169H198.71v-22.169H234.743z M198.71,268.637v-113.41h36.033v113.41H198.71z
			 M249.53,305.594V155.228h12.939v150.366H249.53z M313.302,283.425v22.169h-36.045v-22.169H313.302z M277.257,268.637v-113.41
			h36.045v113.41H277.257z M328.09,305.594V155.228h12.939v150.366H328.09z M391.862,283.425v22.169h-36.045v-22.169H391.862z
			 M355.817,268.637v-113.41h36.045v113.41H355.817z M406.65,305.594V155.228h12.939v150.366H406.65z M463.804,305.594h-29.428
			v-22.169h29.428V305.594z M463.804,268.637h-29.428v-113.41h29.428V268.637z M463.804,140.44H48.208v-24.203h415.596V140.44z
			 M497.212,431.376h-18.62V80.624h18.62V431.376z"/>
	</g>
</g>
<g>
</g>
<g>
</g>
<g>
</g>
<g>
</g>
<g>
</g>
<g>
</g>
<g>
</g>
<g>
</g>
<g>
</g>
<g>
</g>
<g>
</g>
<g>
</g>
<g>
</g>
<g>
</g>
<g>
</g>
</svg>
