<?xml version="1.0"?>
<svg xmlns="http://www.w3.org/2000/svg" xmlns:xlink="http://www.w3.org/1999/xlink" version="1.1" id="Capa_1" x="0px" y="0px" viewBox="0 0 353.951 353.951" style="enable-background:new 0 0 353.951 353.951;" xml:space="preserve" width="512px" height="512px" class=""><g><g>
	<g>
		<path d="M336.199,148.351c-3.2-3.2-8-3.2-11.2,0l-160,160c-35.2,35.2-86.4,40-114.4,11.2c-28.8-28.8-23.2-80,11.2-114.4    l168.8-168.8c22.4-22.4,56-26.4,74.4-8c18.4,18.4,15.2,52-8,74.4l-149.6,149.6c-6.4,6.4-14.4,10.4-22.4,11.2    c-8,0.8-14.4-1.6-19.2-6.4c-10.4-10.4-8-28.8,4.8-41.6l100-100c3.2-3.2,3.2-8,0-11.2s-8-3.2-11.2,0l-100.8,100l-0.8,0.8    c0,0,0,0.8-0.8,0.8c-17.6,19.2-19.2,46.4-3.2,62.4c8,8,19.2,12,32,11.2c12-0.8,23.2-6.4,32.8-16l149.6-149.6    c28.8-28.8,32.8-72.8,8-97.6c-24.8-24.8-68-20.8-97.6,8l-168.8,168.8c-40.8,40.8-46.4,102.4-11.2,137.6    c15.2,15.2,36,23.2,58.4,23.2c27.2,0,56-12,79.2-34.4l160-160C339.399,156.351,339.399,151.551,336.199,148.351z" data-original="#000000" class="active-path" data-old_color="#6f6c6c" fill="#6f6c6c"/>
	</g>
</g></g> </svg>
